<?xml version="1.0" encoding="iso-8859-1"?>
<!-- Generator: Adobe Illustrator 16.0.0, SVG Export Plug-In . SVG Version: 6.00 Build 0)  -->
<!DOCTYPE svg PUBLIC "-//W3C//DTD SVG 1.1//EN" "http://www.w3.org/Graphics/SVG/1.1/DTD/svg11.dtd">
<svg version="1.1" id="Capa_1" xmlns="http://www.w3.org/2000/svg" xmlns:xlink="http://www.w3.org/1999/xlink" x="0px" y="0px"
	 width="31.694px" height="31.694px" viewBox="0 0 31.694 31.694" style="enable-background:new 0 0 31.694 31.694;"
	 xml:space="preserve">
<g>
	<g>
		<path d="M22.674,24.873c-0.813,0-1.475-0.661-1.475-1.475v-0.626c0-0.445-0.361-0.807-0.807-0.807V13.79
			c0-0.565-0.459-1.023-1.023-1.023c-0.562,0-1.021,0.458-1.021,1.023v8.176h-0.699v-6.639c0-0.565-0.459-1.023-1.023-1.023
			c-0.565,0-1.022,0.457-1.022,1.023v6.639h-1.022V13.79c0-0.565-0.457-1.023-1.022-1.023s-1.021,0.458-1.021,1.023v8.176h-0.861
			v-6.639c0-0.565-0.459-1.023-1.024-1.023c-0.564,0-1.022,0.457-1.022,1.023v6.639H8.609V13.79c0-0.565-0.458-1.023-1.023-1.023
			c-0.564,0-1.021,0.458-1.021,1.023v8.176H5.811v-6.639c0-0.565-0.457-1.023-1.022-1.023s-1.022,0.457-1.022,1.023v6.639H2.744
			V13.79c0-0.565-0.458-1.023-1.022-1.023c-0.565,0-1.022,0.458-1.022,1.023v8.176c-0.387,0-0.7,0.313-0.7,0.7v2.311
			c0,2.379,1.929,4.309,4.308,4.309h25.68c0.941,0,1.706-0.764,1.706-1.706v-0.926c0-0.983-0.798-1.78-1.781-1.78H22.674z"/>
		<path d="M6.438,10.853c1.774,0.075,3.609,0.1,5.267,0.1c3.318,0,5.93-0.1,5.93-0.1s0.049-0.003,0.137-0.003
			c0.515,0,2.375,0.053,3.761,0.769c0.295,0.152,0.649,0.128,0.92-0.064c0.271-0.19,0.412-0.517,0.368-0.845
			c-0.282-2.086-1.225-5.048-4.227-6.308c-1.145-0.48-2.388-0.649-3.665-0.649C11.821,3.75,8.5,4.759,5.844,4.759
			c-1.128,0-2.137-0.183-2.959-0.701c0,0-0.609-0.453-1.092-1.273C1.636,2.52,1.335,2.375,1.03,2.417
			c-0.305,0.042-0.555,0.263-0.634,0.56c-0.281,1.058-0.417,2.463,0.06,4.015C0.456,6.991,1.478,10.642,6.438,10.853z M1.252,3.815
			c0.492,0.663,0.982,1.034,1.02,1.062c0.022,0.017,0.043,0.03,0.066,0.047C3.254,5.5,4.399,5.778,5.842,5.778
			c1.358,0,2.813-0.235,4.356-0.485c1.571-0.257,3.196-0.521,4.729-0.52c1.283,0,2.354,0.187,3.269,0.57
			c2.422,1.017,3.276,3.43,3.567,5.253c-0.016-0.007-0.029-0.013-0.045-0.019C18.477,4.382,9.735,8.644,5.289,7.916
			c-2.912-0.478-3.815-2.4-4.083-3.788C1.219,4.02,1.235,3.917,1.252,3.815z"/>
	</g>
</g>
<g>
</g>
<g>
</g>
<g>
</g>
<g>
</g>
<g>
</g>
<g>
</g>
<g>
</g>
<g>
</g>
<g>
</g>
<g>
</g>
<g>
</g>
<g>
</g>
<g>
</g>
<g>
</g>
<g>
</g>
</svg>
